<?xml version="1.0" encoding="utf-8"?>
<!-- Generator: Adobe Illustrator 27.1.0, SVG Export Plug-In . SVG Version: 6.00 Build 0)  -->
<svg version="1.1" xmlns="http://www.w3.org/2000/svg" xmlns:xlink="http://www.w3.org/1999/xlink" x="0px" y="0px"
	 viewBox="0 0 529.5 416.4" style="enable-background:new 0 0 529.5 416.4;" xml:space="preserve">
<style type="text/css">
	.st0{display:none;}
	.st1{display:inline;fill:#414042;}
	.st2{display:inline;}
	.st3{fill:#22BFCE;}
	.st4{display:inline;fill:#22BFCE;}
</style>
<g id="Layer_6" class="st0">
	<path class="st1" d="M528.4,492.3c-1.9-3.1-4-6.1-6-9.2c-4.8-7.4-9.6-14.8-14.1-22.3c-1.7-2.8-2.5-6.2-4.3-9
		c-4.7-7.3-10.3-13.9-17.2-19.4c-1.7-1.3-3.4-2.8-4.7-4.4c-3-3.6-5.5-7.3-5.3-12.5c0.2-3.4-0.7-6.9-1.3-10.4
		c-2.5-14.9-6.7-29.4-10.9-44c-2.3-7.9-5.3-15.8-2.8-24.3c0.4-1.4,0.2-3,0.1-4.5c-0.3-4.5-0.5-9-0.9-13.4
		c-0.8-7.3-1.6-14.6-4.4-21.4c-5.8-14-11.5-28-17.3-41.9c-3.5-8.3-6.8-16.7-4.5-26c0.3-1.1,0.1-2.3,0-3.5c-0.2-3.8-0.5-7.6-0.7-11.5
		c-0.4-9.6-0.7-19.3-1.1-28.9c0-1.2-0.4-2.3-0.5-3.4c-1.1-6.7-3.1-13.4-3.1-20.2c0-10.7-0.1-21.6,3.3-32.1
		c2.5-7.6,2.9-15.4,0.4-23.1c-4.5-13.2-9.1-26.4-13.7-39.5c-0.3-0.9-0.9-1.8-1.5-2.6c-3.9-5.7-8-11.3-14.1-14.7
		c-4.6-3.4-9.7-6.3-15.4-8.5c-0.8-0.3-1.6-0.6-2.4-0.9c-1.1-0.5-2.2-1-3.4-1.4c-0.4-0.1-0.8-0.3-1.2-0.4c-6.8-2.8-13.5-5.8-20.1-9.1
		c-17.4-8.7-33.1-20-45.6-35c-8.3-9.9-14.3-21.3-13.3-34.9c0.7-9.5,2.1-19,3.1-28.5c0.2-1.8,0.9-2.8,2.8-3.2
		c4.1-0.9,7.7-2.9,10.1-6.3c6.4-9.2,8.8-19.4,6.3-30.4c-0.4-1.7-1.9-3.7-3.4-4.5c-2.3-1.3-2.4-2.8-2.4-5.1c0.2-6.4,1-13,0-19.2
		c-2.8-16.6-13.5-27.8-27.4-35.9c-19.3-11.2-45.8-8.1-63.1,7C216-155.6,209-142.6,210.3-126c0.2,2.9,0.3,5.8,0.6,8.7
		c0.2,1.8-0.6,2.6-1.9,3.8c-1.8,1.6-3.7,3.8-4.2,6.1c-2,9.7,0.1,18.8,5.1,27.2c2.5,4.3,6.3,7.3,11.2,8.2c2.3,0.5,3,1.7,3.2,3.8
		c1,9.2,2.1,18.4,3,27.5c0.7,6.8-0.9,13.1-3.6,19.4c-6.3,14.5-17.3,25-29.3,34.5c-12.5,9.9-26.5,17.2-41,23.4
		c-3.4,0.9-6.7,2.1-9.9,3.5c-5.5,2.4-10.6,5.5-15.9,8.4c-2.2,1.2-4.6,2.3-6.3,4c-5.5,5.6-10.8,11.4-12.5,19.4
		c-0.4,1.8-1.2,3.4-1.8,5.2c-3.2,8.9-6.3,17.9-9.5,26.8c-2.9,8-3.2,16.2-0.5,24c3.3,9.7,3,19.6,3.6,29.5c0.4,6.7-1.4,13.2-2.4,19.7
		c-1.4,9.2-1.8,18.5-2.4,27.8c-0.3,5.6-0.2,11.3-0.3,17c-0.1,2.5-0.7,5-0.3,7.4c1.3,7.3-0.1,14.2-2.9,20.9c-6.4,15.5-13,31-19,46.6
		c-5,12.9-5.8,26.5-4.9,40.3c0.3,5.1,0.9,10.2-0.8,15.2c-2.1,6.5-4,13-5.8,19.6c-3.7,13.8-7.6,27.5-8.7,41.9
		c-0.2,2.6-0.3,5.5-1.6,7.6c-1.9,3.2-4.4,6.3-7.3,8.7c-8.2,7.2-15.5,15.1-20.8,24.7c-2.8,5.1-6.1,9.9-9.5,14.6
		c-4,5.7-8.5,11.1-12.6,16.8c-2.4,3.4-2.2,4.9,0.3,8c1.8,2.3,4.5,3.1,7.6,2c1.4-0.5,2.7-1.2,3.9-2.1c4.7-3.3,9.3-6.8,14-10.2
		c0,6.3-0.1,12.6,0,18.9c0.1,12.6,0.2,25.3,0.6,37.9c0.1,4.4,1.4,8.6,6.3,10.5c1.7-0.3,3.4-0.6,5.3-0.8c0.4,2,0.7,3.6,1.2,5.2
		c0.4,1.3,0.8,2.6,1.5,3.6c4.2,5.6,8.4,4.8,11.8-0.8c10.4,1.7,13-6.3,16.2-13.4c1.4,0.7,2.7,1.4,3.7,1.9c3.5-0.7,5-3,6-5.8
		c3.6-9.5,5.5-19.5,7.2-29.5c1.2-7.5,2.5-15.1,4-22.5c1.3-6.5,3.2-12.9,4.5-19.4c1.8-8.1,1.2-16.2-1.8-24c-0.6-1.5-1.1-3.1-2-5.4
		c2.6-6,5.2-12.4,8.2-18.7c4-8.4,8.1-16.7,12.3-25.1c1.5-3.1,3.1-6.2,5.1-9.1c2.5-3.7,5.5-7.1,8-10.8c8.8-12.6,15-26.3,16.5-41.8
		c1-9.7,1.8-19.4,4.9-28.8c3.3-10,3.5-20.6,3.1-31.1c-0.1-2-0.1-4,0.5-5.9c1.8-6.2,3.6-12.4,5.7-18.6c1.1-2.7,2.3-5.3,3.4-7.6
		c1,4.2,2,8.4,2.9,12.6c0.4,1.7,0.6,3.6,0.4,5.3c-1.8,14.3-4.1,28.6-5.7,43c-0.9,8.6-2.4,17.2-1,25.9c0.2,1.1-0.2,2.3-0.4,3.4
		c-1.5,5.8-3.2,11.5-4.5,17.3c-2.7,12-5.2,24-4.5,36.5c0.1,1-0.1,2-0.1,3c-1,10.3-2,20.5-2.9,30.8c-0.5,5.8-0.7,11.6-1.2,17.4
		c-1.6,20-1.3,39.9,1.5,59.8c1.6,11.5,3,23.1,4.8,34.6c1.8,11.7,3.5,23.3,5.8,34.9c2,9.7,4.5,19.4,7.3,29
		c4.2,14.5,7.9,29.2,15.1,42.7c0.5,1,0.7,2.2,0.9,3.3c2.4,11.3,3.2,22.7,3.7,34.2c0.4,7.1,1.8,14.1,0.1,21.4
		c-2.4,10.5-4.1,21.2-6.2,31.8c-0.5,2.8-1.5,5.4-2,8.2c-1.1,7.4-1.9,14.8-3.1,22.2c-1.7,10.5-0.9,20.9,0.5,31.3
		c1.7,12.9,5.3,25.3,8.8,37.8c5.3,18.7,10.1,37.5,15.1,56.3c2.3,8.8,4.1,17.8,8.3,26.1c3.5,6.9,3.6,14,2.2,21.3
		c-1.3,6.8-1.5,13.6,0.6,20.2c1.1,3.4,0.6,6.6-0.8,9.7c-3.6,7.6-9.2,13.7-14.6,19.9c-1.5,1.7-3.1,3.2-4.7,4.6h0c0,0,0,0,0,0
		c-1.7,1.5-3.4,3-5,4.6c-1.7,1.7-2.8,3.7-3.1,6.1c-1.3,4.8,1.1,9.9,14,13.3c18.2,4.8,32.8,5.5,40.8,4.7c0.6,0,1.2-0.1,1.9-0.2
		c0.2,0,0.5-0.1,0.7-0.2c1.6-0.3,2.7-0.7,3.4-1.1c0,0,0,0,0,0c2.2-1,4.2-2.4,5.6-4.4c2.7-3.8,5.1-7.8,7.4-11.8
		c1.8-3,1.7-6.4,1.1-9.7c-1.2-7.7-2.5-15.4-3.5-23.2c-0.3-2.1,0.1-4.3,0.7-6.3c1.2-4.3,3-8.5,4.2-12.8c0.5-1.8,0.9-4,0.3-5.8
		c-3.9-13.6-6.5-27.5-8.1-41.5c-0.8-6.9-1.6-13.9-0.3-20.9c0.6-3.3,0.8-6.6,1-9.9c0.4-9,0.3-18,1.1-26.9c0.6-6.9,1.6-14,3.8-20.5
		c4.9-14,5.2-28,2.8-42.3c-0.8-5.1-2.3-10-3.3-15.1c-2-10.3-4.1-20.5-5.9-30.8c-0.6-3.6-0.4-7.3-1.1-10.9c-0.6-2.8-0.1-5.2,1-7.7
		c2.2-5.2,4.6-10.4,6-15.8c3.9-15.3,6.4-31,7.1-46.7c0.6-13.1,0.1-26.4-1.1-39.4c-1.5-16.5-2.1-32.9-1.6-49.4c0.1-2.5,0.3-5,0.7-7.4
		c1.1-8.1,2.5-16.1,3.4-24.2c0.9-7.8,1.2-15.6,2.1-23.3c0.4-3.3,0.1-6.9,3.5-10.4c0.8,4.8,1.6,8.6,2,12.6c0.9,8.1,1.3,16.2,2.3,24.3
		c1.3,10.7,3.6,21.4,4.1,32.1c0.6,11.6-0.2,23.3-0.7,34.9c-0.3,7-1.2,13.9-1.7,20.9c-0.3,5-0.5,10-0.6,15c-0.1,5.7-0.4,11.4,0.1,17
		c0.8,9.3,2.2,18.5,3.5,27.7c1.7,11.5,4.2,22.9,9.6,33.4c0.8,1.6,1.3,3.5,1.2,5.2c-0.3,5.3-0.6,10.6-1.6,15.8
		c-2.4,12.7-5,25.4-7.9,38c-3,13.5-3.6,27-0.4,40.5c1.3,5.3,3.5,10.4,4.4,15.8c1.2,7.9,1.8,15.8,2.3,23.8c0.4,7-0.2,14,0.6,20.9
		c0.7,6.6,1.7,13.1,0.8,19.8c-1.5,11.9-2.8,23.7-5.7,35.4c-4,16.1-4.7,11.1,1,26.9c1.3,3.5,1.9,7.1,1.4,10.8
		c-1,7.7-1.9,15.5-3.3,23.2c-0.6,3.4-0.3,6.3,1.4,9.1c2,3.4,4.1,6.8,6.4,10.1c1.2,1.8,2.8,3,4.5,3.9c0.1,0,0.1,0.1,0.2,0.1
		c0.3,0.2,0.8,0.3,1.4,0.5c1.2,0.4,2.4,0.7,3.6,0.8c0.8,0.1,1.5,0.1,2.2,0.1c8.2,0.6,22.2-0.1,39.5-4.7c24.8-6.6,9.8-20.2,4.8-24.8
		h0c-5.5-6.6-11.1-13.1-15.5-20.6c-2.2-3.8-3.3-7.5-2.1-11.8c2-6.8,1.5-13.8,0.6-20.8c-0.7-5.2-1.9-10.5,0.3-15.7
		c4.3-10.1,7.7-20.5,10.2-31.2c2.8-12,6.2-23.8,9.4-35.7c2.3-8.8,4.2-17.8,7.2-26.4c5-14.4,7.7-29.3,8.5-44.4
		c0.4-8.1-0.3-16.3-1.1-24.4c-0.7-6.9-2-13.8-3.4-20.6c-2.4-12.2-5-24.4-7.3-36.6c-0.6-3.2-1-6.6-0.9-9.9c0.4-8.3,1.1-16.6,1.8-24.9
		c1-10.2,1.4-20.6,6.9-29.8c0.7-1.1,1.1-2.4,1.5-3.7c7.4-21,14.3-42.2,18.2-64.2c2.3-13.1,4.4-26.2,6.3-39.3
		c1.7-11.7,3.4-23.4,4.6-35.1c1-8.9,1.9-17.9,1.9-26.9c-0.1-12.1-1-24.3-1.7-36.4c-0.3-5.2-0.8-10.3-1.2-15.4
		c-0.8-10.4-1.7-20.9-2.5-31.3c-0.2-2.5,0-5-0.5-7.5c-2.1-10.9-4.4-21.8-6.6-32.7c-0.8-3.7-1.9-7.4-2.2-11.2
		c-0.6-8.1-0.3-16.3-1.2-24.4c-1.4-12.7-3.6-25.3-5.3-38c-0.5-3.4-0.8-7-0.2-10.4c0.9-4.9,2.1-9.7,3.4-14.5
		c2.3,6.6,4.4,12.5,5.4,15.4c0.2,0.7,0.5,1.4,0.7,2.1c2.1,6.7,3.8,13.3,3.2,20.5c-0.7,9.2,0.2,18.4,3.2,27.1
		c2.9,8.3,3.6,16.8,4.6,25.4c1.2,10.1,3,20,7.7,29.2c5.1,10,11.6,19,18.4,27.9c1,1.3,1.9,2.7,2.6,4.2c2.9,6.3,5.6,12.8,8.7,19
		c4.7,9.3,10.5,18.2,12.3,29.1c-1,3.2-2.4,6.6-3.2,10.1c-0.7,3.2-1.5,6.6-1.2,9.8c0.7,6.1,1.9,12.1,3.3,18.1
		c1.2,5.2,3.3,10.2,4.1,15.4c2,12.8,3.5,25.7,5.3,38.5c0.4,2.6,1,5.3,2,7.7c1.5,3.5,4.8,4.7,8.3,3.5c0.8-0.3,1.6-0.8,2.3-1.2
		c1.5,3.6,2.7,6.9,4.1,10c1.7,3.7,4.8,5.4,8.8,5.6c1,0,2,0,2.3,0c3.4,1.6,6.2,3,8.7,4.2c5.9-2.8,5.3-8.3,6.7-12.7
		c1.7,0.4,3.2,0.8,4.7,1.2c4.2-2.8,5.4-7.1,6-11.3c1.1-6.7,1.7-13.5,1.9-20.3c0.4-10.2,0.3-20.3,0.4-30.5c0-1.9,0.2-3.9,0.3-5.8
		c5.7,4,10.7,7.8,16,11.2c2.4,1.6,5.1,2.5,8.1,1.3C529.4,496.5,530.1,495,528.4,492.3z"/>
</g>
<g id="Layer_5" class="st0">
	<g class="st2">
		<g>
			<path class="st3" d="M196.6,475c-33.3,4.2-52.5,23.1-50.1,41.2c0,0,0,0,0,0c0.7,5.5,1.5,11,2.3,16.4c1.8,11.7,3.5,23.3,5.8,34.9
				c2,9.7,4.5,19.4,7.3,29c4.2,14.5,7.9,29.2,15.1,42.7c0.5,1,0.7,2.2,0.9,3.3c2.4,11.3,3.2,22.7,3.7,34.2
				c0.4,7.1,1.8,14.1,0.1,21.4c-2.4,10.5-4.1,21.2-6.2,31.8c-0.5,2.8-1.5,5.4-2,8.2c-1.1,7.4-1.9,14.8-3.1,22.2
				c-1.7,10.5-0.9,20.9,0.5,31.3c1.7,12.9,5.3,25.3,8.8,37.8c5.3,18.7,10.1,37.5,15.1,56.3c2.2,8.5,4,17.1,7.8,25.1l0,0
				c0.5,1.2,1.1,2.5,1.7,3.7c4.1,8.6,9.7,16.6,19.1,16.2c10.7-0.4,25.8-12.5,23.2-29.6c0-0.1,0-0.1,0-0.2c0,0,0,0,0,0
				c-0.1-0.5-0.1-1.1-0.2-1.6c-0.8-6.9-1.6-13.9-0.3-20.9c0.6-3.3,0.8-6.6,1-9.9c0.4-9,0.3-18,1.1-26.9c0.6-6.9,1.6-14,3.8-20.5
				c4.9-14,5.2-28,2.8-42.3c-0.8-5.1-2.3-10-3.3-15.1c-2-10.3-4.1-20.5-5.9-30.8c-0.6-3.6-0.4-7.3-1.1-10.9c-0.6-2.8-0.1-5.2,1-7.7
				c2.2-5.2,4.6-10.4,6-15.8c3.9-15.3,6.4-31,7.1-46.7c0.6-13.1,0.1-26.4-1.1-39.4c-1.5-16.5-2.1-32.9-1.6-49.4
				c0.1-2.5,0.3-5,0.7-7.4c1.1-8.1,2.5-16.1,3.4-24.2c0.4-3.1,0.6-6.3,0.9-9.5c0.1-1.4,0.2-2.8,0.3-4.1
				C262.4,486.7,228.5,470.9,196.6,475z"/>
			<path class="st3" d="M333.3,475c-31.6-4-65.1,11.3-65.1,41.4c0.2,2.4,0.4,4.8,0.6,7.1c0.3,3.7,0.6,7.4,1.1,11.1
				c1.3,10.7,3.6,21.4,4.1,32.1c0.6,11.6-0.2,23.3-0.7,34.9c-0.3,7-1.2,13.9-1.7,20.9c-0.3,5-0.5,10-0.6,15
				c-0.1,5.7-0.4,11.4,0.1,17c0.8,9.3,2.2,18.5,3.5,27.7c1.7,11.5,4.2,22.9,9.6,33.4c0.8,1.6,1.3,3.5,1.2,5.2
				c-0.3,5.3-0.6,10.6-1.6,15.8c-2.4,12.7-5,25.4-7.9,38c-3,13.5-3.6,27-0.4,40.5c1.3,5.3,3.5,10.4,4.4,15.8
				c1.2,7.9,1.8,15.8,2.3,23.8c0.4,7-0.2,14,0.6,20.9c0.7,6.6,1.7,13.1,0.8,19.8c-0.2,1.9-0.5,3.9-0.7,5.8c0,0,0,0,0.1,0
				c-1,7.2,1,14.2,5.7,20c4.7,5.7,11.7,9.5,17.7,9.7c0.2,0,0.4,0,0.6,0c9.9,0,15.6-9.3,19.9-18.8c0.2-0.4,0.4-0.9,0.6-1.3l0.1-0.1
				l0-0.1c3-7.8,5.4-15.8,7.2-24c2.8-12,6.2-23.8,9.4-35.7c2.3-8.8,4.2-17.8,7.2-26.4c5-14.4,7.7-29.3,8.5-44.4
				c0.4-8.1-0.3-16.3-1.1-24.4c-0.7-6.9-2-13.8-3.4-20.6c-2.4-12.2-5-24.4-7.3-36.6c-0.6-3.2-1-6.6-0.9-9.9
				c0.4-8.3,1.1-16.6,1.8-24.9c1-10.2,1.4-20.6,6.9-29.8c0.7-1.1,1.1-2.4,1.5-3.7c7.4-21,14.3-42.2,18.2-64.2
				c2.3-13.1,4.4-26.2,6.3-39.3c0.5-3.5,1-6.9,1.5-10.4c0.1-0.7,0.2-1.4,0.3-2.1C384.7,496.7,365.6,479.1,333.3,475z"/>
		</g>
	</g>
</g>
<g id="Layer_4" class="st0">
	<path class="st4" d="M347.7,203.4c-7.4-3.9-16.4-6.8-26.4-8.9c-4-0.8-8.1-1.5-12.3-2.1c-3.5-0.5-7.1-0.9-10.8-1.2
		c-0.7-0.1-1.5-0.1-2.2-0.2c-2.9-0.2-5.9-0.4-8.9-0.6c-0.7,0-1.5-0.1-2.2-0.1c-1.5-0.1-3-0.1-4.5-0.2c-5.2-0.2-10.5-0.3-15.7-0.3
		c0,0,0,0,0,0s0,0,0,0c-5.2,0-10.4,0.1-15.7,0.3c-1.5,0.1-3,0.1-4.5,0.2c-0.7,0-1.5,0.1-2.2,0.1c-3,0.2-5.9,0.4-8.9,0.6
		c-0.7,0.1-1.5,0.1-2.2,0.2c-3.6,0.3-7.2,0.7-10.8,1.2c-4.2,0.6-8.3,1.3-12.3,2.1c-3.3,0.7-6.5,1.5-9.6,2.3
		c-1.2,0.4-2.4,0.7-3.6,1.1c-4.8,1.5-9.2,3.3-13.1,5.4c-11.4,6.1-19,14.6-20.4,26.6c0,0-0.7,6-1.5,14.3c0.9,3.8,1.8,7.6,2.6,11.4
		c0.4,1.7,0.6,3.6,0.4,5.3c-1.7,13.3-3.7,26.6-5.3,39.9c1.2,3.5,3.3,6.8,5.9,11.3c0.5,0.9,1,1.8,1.6,2.8c0.3,0.5,0.6,1,0.8,1.5
		c0.9,1.6,1.7,3.3,2.7,5.2c0.6,1.3,1.3,2.6,1.9,4.1c2.3,5,4.8,11.2,7.4,18.9c5.3,15.7,14.9,42.1,28.2,67.6
		c16.3,31.2,26.5,46.3,57.5,46.3c0.4,0,0.7,0.1,1.1,0.1c0,0,0,0,0,0c0,0,0,0,0,0c0.4,0,0.7,0,1.1-0.1c31,0,41.2-15.1,57.5-46.3
		c13.3-25.6,23-52,28.2-67.6c2.6-7.7,5.1-13.9,7.4-18.9c0.7-1.4,1.3-2.8,1.9-4.1c0.9-1.9,1.8-3.6,2.7-5.2c0.3-0.5,0.6-1,0.8-1.5
		c0.5-1,1.1-1.9,1.6-2.8c2.7-4.8,4.8-8.2,6.1-11.9c-1.4-10.8-3.2-21.6-4.7-32.5c-0.5-3.4-0.8-7-0.2-10.4c0.7-3.8,1.6-7.6,2.6-11.4
		c-0.9-9.3-1.7-16.1-1.7-16.1C366.7,218,359.1,209.5,347.7,203.4z"/>
</g>
<g id="Layer_3">
	<path class="st3" d="M469.2,377.9c0.1,0,0.1,0,0.2-0.1c0,0,0,0,0,0c-0.7-2.6-1.4-5.2-2.2-7.7c-0.2-0.5-0.3-1.1-0.5-1.6
		c-0.7-2.4-1.4-4.8-2.1-7.2c-2.3-7.9-5.3-15.8-2.8-24.3c0.4-1.4,0.2-3,0.1-4.5c-0.3-4.5-0.5-9-0.9-13.4c-0.8-7.3-1.6-14.6-4.4-21.4
		c-5.8-14-11.5-28-17.3-41.9c-3.5-8.3-6.8-16.7-4.5-26c0.3-1.1,0.1-2.3,0-3.5c-0.2-3.8-0.5-7.6-0.7-11.5c-0.4-9.6-0.7-19.3-1.1-28.9
		c0-1.2-0.4-2.3-0.5-3.4c-1.1-6.7-3.1-13.4-3.1-20.2c0-10.7-0.1-21.6,3.3-32.1c2.5-7.6,2.9-15.4,0.4-23.1
		c-4.5-13.2-9.1-26.4-13.7-39.5c-0.3-0.9-0.9-1.8-1.5-2.6c-0.4-0.6-0.9-1.3-1.3-1.9c-0.1-0.1-0.1-0.2-0.2-0.3
		c-0.5-0.6-0.9-1.3-1.4-1.9c-0.1-0.1-0.1-0.2-0.2-0.2c-0.5-0.6-1-1.3-1.5-1.9c0,0,0,0,0-0.1c-1-1.3-2.1-2.5-3.3-3.7
		c0,0-0.1-0.1-0.1-0.1c-0.6-0.6-1.2-1.1-1.8-1.6c0,0-0.1-0.1-0.1-0.1c-2.2-1.5-2.4-1.6-4.2-2.9c-1.2-0.9-6.2-4.2-8-5.1
		c-3.2-1.7-5.7-2.9-9.8-4.3c-0.5-0.2-1-0.5-1.5-0.7c-0.1,0-0.1,0-0.2-0.1c-0.6-0.2-1.1-0.5-1.7-0.7c-0.4-0.1-0.8-0.3-1.2-0.4
		c-6.8-2.8-13.5-5.8-20.1-9.1c-15.1-7.5-28.9-17-40.5-29.2c-2.6,1.6-6,3.1-10.1,4.5c-5.1,1.7-11.3,3-18.3,4
		c-8,1.5-17.5,2.4-27.8,2.4c-13.3,0-25.3-1.4-34.3-3.8c-4.1-0.9-7.9-1.8-11.2-3c-4-1.4-7.4-2.9-9.8-4.6c-4.5,4.8-9.6,9.1-14.8,13.2
		c-12.5,9.9-26.5,17.2-41,23.4c0,0,0,0,0,0c-1.7,0.4-3.4,1-5,1.5c0,0-0.1,0-0.1,0c-0.7,0.3-1.4,0.5-2.1,0.8
		c-0.1,0.1-0.3,0.1-0.4,0.2c-0.7,0.3-1.5,0.6-2.2,0.9c-5.5,2.4-10.6,5.5-15.9,8.4c-2.2,1.2-4.6,2.3-6.3,4
		c-5.5,5.6-10.8,11.4-12.5,19.4c-0.4,1.8-1.2,3.4-1.8,5.2c-3.2,8.9-6.3,17.9-9.5,26.8c-2.9,8-3.2,16.2-0.5,24
		c3.3,9.7,3,19.6,3.6,29.5c0.4,6.7-1.4,13.2-2.4,19.7c-1.4,9.2-1.8,18.5-2.4,27.8c-0.3,5.6-0.2,11.3-0.3,17c-0.1,2.5-0.7,5-0.3,7.4
		c1.3,7.3-0.1,14.2-2.9,20.9c-6.4,15.5-13,31-19,46.6c-5,12.9-5.8,26.5-4.9,40.3c0.3,5.1,0.9,10.2-0.8,15.2c-2.1,6.5-4,13-5.8,19.6
		c-0.4,1.7-0.9,3.3-1.3,5c-0.1,0.2-0.1,0.5-0.2,0.7c0,0,0,0,0,0c-3.8,15.2,0.1,31.8,10.5,36.6c10.4,4.8,30.9,2.6,41.4-17.5
		c1.5-3.1,3.1-6.2,5.1-9.1c2.5-3.7,5.5-7.1,8-10.8c8.8-12.6,15-26.3,16.5-41.8c1-9.7,1.8-19.4,4.9-28.8c3.3-10,3.5-20.6,3.1-31.1
		c-0.1-2-0.1-4,0.5-5.9c1.8-6.2,3.6-12.4,5.7-18.6c0,0,0,0,0,0c0,0,0,0,0,0c0.1-0.3,0.2-0.6,0.3-0.9c1-2.9,1.3-5.7,0.5-8.7
		c-2.8-10.6-5-21.3-5.5-32.4c-0.4-9.3-0.8-18.6-1.2-27.9c-0.3-5.8-0.5-11.6-0.9-17.4c-0.3-4.3-0.8-8.7-1.4-14.1c2,3,3.7,5.5,5.2,7.9
		c0,0,0,0,0,0c0.2,0.3,0.3,0.5,0.5,0.7c8.9,11.8,78.2,18.7,110.8,18.7c31,0,94.9-6.2,109-16.9c1.1-0.8,1.9-1.7,2.3-2.5l-0.1-0.1
		c2-2.2,3.9-4.3,6.1-6.7c-0.2,2.2-0.3,3.5-0.4,4.8c-0.5,5.5-1.3,10.9-1.6,16.4c-0.5,9.8-0.8,19.6-0.9,29.5
		c-0.2,14.2-2.5,28.1-6.1,41.8c-0.6,2.2-0.6,4.2,0.2,6.3c1.1,3,2.1,6.1,3.1,9.2c0,0,0,0,0,0c0.2,0.7,0.5,1.4,0.7,2.1
		c2.1,6.7,3.8,13.3,3.2,20.5c-0.7,9.2,0.2,18.4,3.2,27.1c2.9,8.3,3.6,16.8,4.6,25.4c1.2,10.1,3,20,7.7,29.2
		c5.1,10,11.6,19,18.4,27.9c0.3,0.4,0.6,0.7,0.8,1.1c0,0,0,0,0,0c0.7,1,1.3,2,1.8,3.1c0.6,1.3,1.2,2.6,1.8,3.9
		c10.8,18.2,30.2,20.1,40.3,15.5C469,409.5,472.9,393,469.2,377.9z"/>
</g>
</svg>
