<?xml version="1.0" encoding="utf-8"?>
<!-- Generator: Adobe Illustrator 27.1.0, SVG Export Plug-In . SVG Version: 6.00 Build 0)  -->
<svg version="1.1" id="Layer_1" xmlns="http://www.w3.org/2000/svg" xmlns:xlink="http://www.w3.org/1999/xlink" x="0px" y="0px"
	 viewBox="0 0 288.5 59.1" style="enable-background:new 0 0 288.5 59.1;" xml:space="preserve">
<style type="text/css">
	.st0{fill:#3C3C3B;}
	.st1{fill:#ECECEC;}
</style>
<g>
	<g>
		<path class="st0" d="M11.1,57.5L0.1,1.7L0,1.4c0-0.5,0.3-0.7,0.9-0.7h7.9c0.7,0,1,0.3,1.1,0.9L15.7,36c0.1,0.2,0.1,0.2,0.2,0.2
			c0.1,0,0.2-0.1,0.2-0.2l5.2-34.4c0.1-0.6,0.4-0.9,1.1-0.9H29c0.7,0,1,0.3,1.1,0.9L35.7,36c0.1,0.2,0.1,0.2,0.2,0.2
			s0.2-0.1,0.2-0.2l5.2-34.4c0.1-0.6,0.4-0.9,1.1-0.9h7.7c0.7,0,1,0.4,0.9,1.1L40.6,57.5c-0.1,0.6-0.4,0.9-1.1,0.9h-7
			c-0.7,0-1-0.3-1.1-0.9l-5.5-35.1c-0.1-0.2-0.1-0.3-0.2-0.3s-0.2,0.1-0.2,0.3l-5.1,35.1c-0.1,0.6-0.4,0.9-1.1,0.9h-7.1
			C11.5,58.4,11.1,58.1,11.1,57.5z"/>
		<path class="st0" d="M85.9,8.6c-0.2,0.2-0.4,0.3-0.7,0.3H67.4C67.1,8.9,67,9,67,9.3v15.6c0,0.3,0.1,0.4,0.4,0.4h10.6
			c0.3,0,0.5,0.1,0.7,0.3c0.2,0.2,0.3,0.4,0.3,0.7v6.3c0,0.3-0.1,0.5-0.3,0.7c-0.2,0.2-0.4,0.3-0.7,0.3H67.4c-0.3,0-0.4,0.1-0.4,0.4
			v15.7c0,0.3,0.1,0.4,0.4,0.4h17.8c0.3,0,0.5,0.1,0.7,0.3c0.2,0.2,0.3,0.4,0.3,0.7v6.3c0,0.3-0.1,0.5-0.3,0.7
			c-0.2,0.2-0.4,0.3-0.7,0.3H58.4c-0.3,0-0.5-0.1-0.7-0.3c-0.2-0.2-0.3-0.4-0.3-0.7V1.7c0-0.3,0.1-0.5,0.3-0.7s0.4-0.3,0.7-0.3h26.8
			c0.3,0,0.5,0.1,0.7,0.3c0.2,0.2,0.3,0.4,0.3,0.7v6.3C86.2,8.2,86.1,8.4,85.9,8.6z"/>
		<path class="st0" d="M93.6,58.1c-0.2-0.2-0.3-0.4-0.3-0.7V1.7c0-0.3,0.1-0.5,0.3-0.7c0.2-0.2,0.4-0.3,0.7-0.3h7.6
			c0.3,0,0.5,0.1,0.7,0.3c0.2,0.2,0.3,0.4,0.3,0.7v55.7c0,0.3-0.1,0.5-0.3,0.7c-0.2,0.2-0.4,0.3-0.7,0.3h-7.6
			C94,58.4,93.8,58.3,93.6,58.1z"/>
		<path class="st0" d="M115,55c-2.8-2.7-4.2-6.3-4.2-10.8V14.9c0-4.5,1.4-8.1,4.2-10.8c2.8-2.7,6.6-4.1,11.3-4.1
			c4.7,0,8.5,1.4,11.3,4.1s4.3,6.4,4.3,10.9v3.2c0,0.3-0.1,0.5-0.3,0.7c-0.2,0.2-0.4,0.3-0.7,0.3h-7.6c-0.3,0-0.5-0.1-0.7-0.3
			c-0.2-0.2-0.3-0.4-0.3-0.7v-3.4c0-2-0.6-3.6-1.7-4.8c-1.1-1.2-2.6-1.8-4.4-1.8c-1.8,0-3.3,0.6-4.4,1.8c-1.1,1.2-1.7,2.8-1.7,4.8
			v29.4c0,2,0.6,3.6,1.7,4.8c1.1,1.2,2.6,1.8,4.4,1.8c1.8,0,3.3-0.6,4.4-1.8c1.1-1.2,1.7-2.8,1.7-4.8v-7.9c0-0.3-0.1-0.4-0.4-0.4h-5
			c-0.3,0-0.5-0.1-0.7-0.3c-0.2-0.2-0.3-0.4-0.3-0.7v-6c0-0.3,0.1-0.5,0.3-0.7c0.2-0.2,0.4-0.3,0.7-0.3h14c0.3,0,0.5,0.1,0.7,0.3
			c0.2,0.2,0.3,0.4,0.3,0.7v15.3c0,4.5-1.4,8.1-4.3,10.8c-2.9,2.7-6.7,4.1-11.3,4.1C121.6,59.1,117.8,57.7,115,55z"/>
		<path class="st0" d="M171,0.9c0.2-0.2,0.4-0.3,0.7-0.3h7.6c0.3,0,0.5,0.1,0.7,0.3c0.2,0.2,0.3,0.4,0.3,0.7v55.7
			c0,0.3-0.1,0.5-0.3,0.7c-0.2,0.2-0.4,0.3-0.7,0.3h-7.6c-0.3,0-0.5-0.1-0.7-0.3c-0.2-0.2-0.3-0.4-0.3-0.7V34.1
			c0-0.3-0.1-0.4-0.4-0.4h-10.5c-0.3,0-0.4,0.1-0.4,0.4v23.3c0,0.3-0.1,0.5-0.3,0.7c-0.2,0.2-0.4,0.3-0.7,0.3h-7.6
			c-0.3,0-0.5-0.1-0.7-0.3c-0.2-0.2-0.3-0.4-0.3-0.7V1.7c0-0.3,0.1-0.5,0.3-0.7s0.4-0.3,0.7-0.3h7.6c0.3,0,0.5,0.1,0.7,0.3
			c0.2,0.2,0.3,0.4,0.3,0.7v23.3c0,0.3,0.1,0.4,0.4,0.4h10.5c0.3,0,0.4-0.1,0.4-0.4V1.7C170.7,1.4,170.8,1.1,171,0.9z"/>
		<path class="st0" d="M219.5,0.9c0.2,0.2,0.3,0.4,0.3,0.7v6.3c0,0.3-0.1,0.5-0.3,0.7c-0.2,0.2-0.4,0.3-0.7,0.3h-10.5
			c-0.3,0-0.4,0.1-0.4,0.4v48.1c0,0.3-0.1,0.5-0.3,0.7c-0.2,0.2-0.4,0.3-0.7,0.3h-7.6c-0.3,0-0.5-0.1-0.7-0.3
			c-0.2-0.2-0.3-0.4-0.3-0.7V9.3c0-0.3-0.1-0.4-0.4-0.4H188c-0.3,0-0.5-0.1-0.7-0.3c-0.2-0.2-0.3-0.4-0.3-0.7V1.7
			c0-0.3,0.1-0.5,0.3-0.7s0.4-0.3,0.7-0.3h30.8C219.1,0.7,219.3,0.8,219.5,0.9z"/>
	</g>
	<g>
		<path class="st1" d="M223.5,27.9c-0.1-0.1-0.1-0.2-0.1-0.3V1.1c0-0.1,0-0.2,0.1-0.3c0.1-0.1,0.2-0.1,0.3-0.1h3.6
			c0.1,0,0.2,0,0.3,0.1c0.1,0.1,0.1,0.2,0.1,0.3V24c0,0.1,0.1,0.2,0.2,0.2h8.5c0.1,0,0.2,0,0.3,0.1c0.1,0.1,0.1,0.2,0.1,0.3v3
			c0,0.1,0,0.2-0.1,0.3c-0.1,0.1-0.2,0.1-0.3,0.1h-12.7C223.7,28.1,223.6,28,223.5,27.9z"/>
		<path class="st1" d="M252.5,4.4c-0.1,0.1-0.2,0.1-0.3,0.1h-8.5c-0.1,0-0.2,0.1-0.2,0.2v7.4c0,0.1,0.1,0.2,0.2,0.2h5
			c0.1,0,0.2,0,0.3,0.1c0.1,0.1,0.1,0.2,0.1,0.3v3c0,0.1,0,0.2-0.1,0.3c-0.1,0.1-0.2,0.1-0.3,0.1h-5c-0.1,0-0.2,0.1-0.2,0.2V24
			c0,0.1,0.1,0.2,0.2,0.2h8.5c0.1,0,0.2,0,0.3,0.1c0.1,0.1,0.1,0.2,0.1,0.3v3c0,0.1,0,0.2-0.1,0.3c-0.1,0.1-0.2,0.1-0.3,0.1h-12.7
			c-0.1,0-0.2,0-0.3-0.1c-0.1-0.1-0.1-0.2-0.1-0.3V1.1c0-0.1,0-0.2,0.1-0.3c0.1-0.1,0.2-0.1,0.3-0.1h12.7c0.1,0,0.2,0,0.3,0.1
			s0.1,0.2,0.1,0.3v3C252.7,4.2,252.6,4.3,252.5,4.4z"/>
		<path class="st1" d="M258,26.4c-1.3-1.3-2-3-2-5.1v-1c0-0.1,0-0.2,0.1-0.3c0.1-0.1,0.2-0.1,0.3-0.1h3.6c0.1,0,0.2,0,0.3,0.1
			c0.1,0.1,0.1,0.2,0.1,0.3v0.8c0,1,0.3,1.8,0.8,2.5c0.5,0.6,1.2,0.9,2,0.9s1.5-0.3,2-0.9c0.5-0.6,0.8-1.4,0.8-2.3
			c0-0.7-0.1-1.3-0.4-1.8c-0.3-0.5-0.7-1-1.2-1.4c-0.5-0.4-1.4-1.1-2.5-1.9c-1.3-0.9-2.4-1.8-3.2-2.5c-0.8-0.7-1.5-1.6-2-2.6
			c-0.5-1-0.8-2.2-0.8-3.6c0-2.2,0.7-3.9,2-5.2c1.3-1.3,3-1.9,5.2-1.9c2.2,0,3.9,0.7,5.2,2c1.3,1.3,2,3.1,2,5.3v0.9
			c0,0.1,0,0.2-0.1,0.3c-0.1,0.1-0.2,0.1-0.3,0.1h-3.5c-0.1,0-0.2,0-0.3-0.1c-0.1-0.1-0.1-0.2-0.1-0.3v-1c0-1-0.3-1.8-0.8-2.4
			c-0.5-0.6-1.2-0.9-2-0.9c-0.8,0-1.4,0.3-1.9,0.8c-0.5,0.6-0.7,1.3-0.7,2.3c0,0.9,0.3,1.7,0.8,2.4c0.5,0.7,1.6,1.6,3.2,2.7
			c1.6,1.2,2.8,2.1,3.6,2.9s1.4,1.6,1.9,2.4c0.4,0.9,0.7,1.9,0.7,3.2c0,2.2-0.7,4-2,5.3c-1.3,1.3-3.1,2-5.2,2S259.3,27.7,258,26.4z"
			/>
		<path class="st1" d="M276,26.4c-1.3-1.3-2-3-2-5.1v-1c0-0.1,0-0.2,0.1-0.3c0.1-0.1,0.2-0.1,0.3-0.1h3.6c0.1,0,0.2,0,0.3,0.1
			c0.1,0.1,0.1,0.2,0.1,0.3v0.8c0,1,0.3,1.8,0.8,2.5c0.5,0.6,1.2,0.9,2,0.9s1.5-0.3,2-0.9c0.5-0.6,0.8-1.4,0.8-2.3
			c0-0.7-0.1-1.3-0.4-1.8c-0.3-0.5-0.7-1-1.2-1.4c-0.5-0.4-1.4-1.1-2.5-1.9c-1.3-0.9-2.4-1.8-3.2-2.5c-0.8-0.7-1.5-1.6-2-2.6
			c-0.5-1-0.8-2.2-0.8-3.6c0-2.2,0.7-3.9,2-5.2c1.3-1.3,3-1.9,5.2-1.9c2.2,0,3.9,0.7,5.2,2c1.3,1.3,2,3.1,2,5.3v0.9
			c0,0.1,0,0.2-0.1,0.3c-0.1,0.1-0.2,0.1-0.3,0.1h-3.5c-0.1,0-0.2,0-0.3-0.1c-0.1-0.1-0.1-0.2-0.1-0.3v-1c0-1-0.3-1.8-0.8-2.4
			c-0.5-0.6-1.2-0.9-2-0.9c-0.8,0-1.4,0.3-1.9,0.8c-0.5,0.6-0.7,1.3-0.7,2.3c0,0.9,0.3,1.7,0.8,2.4c0.5,0.7,1.6,1.6,3.2,2.7
			c1.6,1.2,2.8,2.1,3.6,2.9s1.4,1.6,1.9,2.4c0.4,0.9,0.7,1.9,0.7,3.2c0,2.2-0.7,4-2,5.3c-1.3,1.3-3.1,2-5.2,2S277.3,27.7,276,26.4z"
			/>
	</g>
	<g>
		<path class="st1" d="M223.5,58.6c-0.1-0.1-0.1-0.2-0.1-0.3V31.8c0-0.1,0-0.2,0.1-0.3c0.1-0.1,0.2-0.1,0.3-0.1h3.6
			c0.1,0,0.2,0,0.3,0.1c0.1,0.1,0.1,0.2,0.1,0.3v22.8c0,0.1,0.1,0.2,0.2,0.2h8.5c0.1,0,0.2,0,0.3,0.1c0.1,0.1,0.1,0.2,0.1,0.3v3
			c0,0.1,0,0.2-0.1,0.3c-0.1,0.1-0.2,0.1-0.3,0.1h-12.7C223.7,58.7,223.6,58.7,223.5,58.6z"/>
		<path class="st1" d="M241.1,57c-1.4-1.4-2.1-3.2-2.1-5.4V38.4c0-2.2,0.7-4,2.1-5.4c1.4-1.4,3.2-2,5.4-2c2.2,0,4.1,0.7,5.4,2
			c1.4,1.4,2.1,3.2,2.1,5.4v13.2c0,2.2-0.7,4-2.1,5.4c-1.4,1.4-3.2,2-5.4,2C244.2,59.1,242.4,58.4,241.1,57z M248.6,54.2
			c0.5-0.6,0.8-1.4,0.8-2.4V38.3c0-1-0.3-1.8-0.8-2.4c-0.5-0.6-1.3-0.9-2.2-0.9s-1.6,0.3-2.1,0.9c-0.5,0.6-0.8,1.4-0.8,2.4v13.6
			c0,1,0.3,1.8,0.8,2.4c0.5,0.6,1.2,0.9,2.1,0.9S248.1,54.8,248.6,54.2z"/>
		<path class="st1" d="M259,57.1c-1.3-1.3-2-3-2-5.1v-1c0-0.1,0-0.2,0.1-0.3c0.1-0.1,0.2-0.1,0.3-0.1h3.6c0.1,0,0.2,0,0.3,0.1
			c0.1,0.1,0.1,0.2,0.1,0.3v0.8c0,1,0.3,1.8,0.8,2.5c0.5,0.6,1.2,0.9,2,0.9s1.5-0.3,2-0.9c0.5-0.6,0.8-1.4,0.8-2.3
			c0-0.7-0.1-1.3-0.4-1.8c-0.3-0.5-0.7-1-1.2-1.4c-0.5-0.4-1.4-1.1-2.5-1.9c-1.3-0.9-2.4-1.8-3.2-2.5c-0.8-0.7-1.5-1.6-2-2.6
			c-0.5-1-0.8-2.2-0.8-3.6c0-2.2,0.7-3.9,2-5.2c1.3-1.3,3-1.9,5.2-1.9c2.2,0,3.9,0.7,5.2,2c1.3,1.3,2,3.1,2,5.3v0.9
			c0,0.1,0,0.2-0.1,0.3c-0.1,0.1-0.2,0.1-0.3,0.1h-3.5c-0.1,0-0.2,0-0.3-0.1c-0.1-0.1-0.1-0.2-0.1-0.3v-1c0-1-0.3-1.8-0.8-2.4
			c-0.5-0.6-1.2-0.9-2-0.9c-0.8,0-1.4,0.3-1.9,0.8c-0.5,0.6-0.7,1.3-0.7,2.3c0,0.9,0.3,1.7,0.8,2.4c0.5,0.7,1.6,1.6,3.2,2.7
			c1.6,1.2,2.8,2.1,3.6,2.9s1.4,1.6,1.9,2.4c0.4,0.9,0.7,1.9,0.7,3.2c0,2.2-0.7,4-2,5.3c-1.3,1.3-3.1,2-5.2,2S260.3,58.4,259,57.1z"
			/>
		<path class="st1" d="M276,57.1c-1.3-1.3-2-3-2-5.1v-1c0-0.1,0-0.2,0.1-0.3c0.1-0.1,0.2-0.1,0.3-0.1h3.6c0.1,0,0.2,0,0.3,0.1
			c0.1,0.1,0.1,0.2,0.1,0.3v0.8c0,1,0.3,1.8,0.8,2.5c0.5,0.6,1.2,0.9,2,0.9s1.5-0.3,2-0.9c0.5-0.6,0.8-1.4,0.8-2.3
			c0-0.7-0.1-1.3-0.4-1.8c-0.3-0.5-0.7-1-1.2-1.4c-0.5-0.4-1.4-1.1-2.5-1.9c-1.3-0.9-2.4-1.8-3.2-2.5c-0.8-0.7-1.5-1.6-2-2.6
			c-0.5-1-0.8-2.2-0.8-3.6c0-2.2,0.7-3.9,2-5.2c1.3-1.3,3-1.9,5.2-1.9c2.2,0,3.9,0.7,5.2,2c1.3,1.3,2,3.1,2,5.3v0.9
			c0,0.1,0,0.2-0.1,0.3c-0.1,0.1-0.2,0.1-0.3,0.1h-3.5c-0.1,0-0.2,0-0.3-0.1c-0.1-0.1-0.1-0.2-0.1-0.3v-1c0-1-0.3-1.8-0.8-2.4
			c-0.5-0.6-1.2-0.9-2-0.9c-0.8,0-1.4,0.3-1.9,0.8c-0.5,0.6-0.7,1.3-0.7,2.3c0,0.9,0.3,1.7,0.8,2.4c0.5,0.7,1.6,1.6,3.2,2.7
			c1.6,1.2,2.8,2.1,3.6,2.9s1.4,1.6,1.9,2.4c0.4,0.9,0.7,1.9,0.7,3.2c0,2.2-0.7,4-2,5.3c-1.3,1.3-3.1,2-5.2,2S277.3,58.4,276,57.1z"
			/>
	</g>
</g>
</svg>
